<?xml version="1.0" encoding="utf-8"?>
<!-- Generator: Adobe Illustrator 23.0.0, SVG Export Plug-In . SVG Version: 6.00 Build 0)  -->
<svg version="1.1" id="Layer_1" xmlns="http://www.w3.org/2000/svg" xmlns:xlink="http://www.w3.org/1999/xlink" x="0px" y="0px"
	 viewBox="0 0 81 59.1" style="enable-background:new 0 0 81 59.1;" xml:space="preserve">
<g>
	<path d="M12.6,10.8H27c1.2,0,1.9,0.5,2.2,1.6c0.3,1,0.7,1.7,1.1,2.1s1.1,0.6,2,0.6c0.7,0,1.4-0.2,2-0.7c0.6-0.5,0.9-1.1,0.9-1.8
		c0-1.9-0.8-3.5-2.5-4.8c-1.7-1.3-3.4-2-5.3-2H12.3c-1.8,0-3.4,0.6-4.7,1.7s-1.9,2.4-1.9,4c0,1.3,0.5,2.5,1.5,3.6l21.6,23.3
		c0.3,0.3,0.4,0.6,0.4,0.8c0,0.4-0.3,0.6-0.9,0.6H13.8c-0.7,0-1.2-0.2-1.6-0.5c-0.4-0.3-0.6-0.8-0.6-1.3c0-0.6-0.3-1.2-0.8-1.7
		c-0.6-0.5-1.2-0.7-2-0.7c-2,0-3.1,0.9-3.1,2.8c0,1.6,0.8,3.1,2.3,4.4s3.3,2,5.4,2h15.7c1.5,0,2.9-0.6,4.2-1.7
		c1.3-1.1,1.9-2.4,1.9-3.9c0-1.3-0.5-2.5-1.6-3.6L12,12.2c-0.3-0.3-0.4-0.6-0.4-0.8C11.6,11,11.9,10.8,12.6,10.8z"/>
	<path d="M77.1,17.1c-0.6-0.5-1.3-0.7-2-0.7c-0.8,0-1.5,0.3-2.1,0.8c-0.6,0.5-0.9,1.1-0.9,1.7l0,3.8l-7.9,14.9h-2l-7.7-15v-3.7
		c0-0.7-0.3-1.3-0.9-1.7c-0.6-0.5-1.3-0.7-2.1-0.7c-0.8,0-1.5,0.2-2,0.7s-0.8,1.1-0.8,1.7v4.8l8.7,17.2c0.6,1.2,1.5,1.7,2.9,1.7h1.4
		l-4,7.8h-6.2c-0.8,0-1.5,0.2-2.1,0.7c-0.6,0.5-0.9,1-0.9,1.7c0,0.7,0.3,1.3,0.9,1.8s1.3,0.7,2.1,0.7h8.1c1.3,0,2.2-0.5,2.8-1.6
		l15.7-30v-4.8C78,18.1,77.7,17.6,77.1,17.1z"/>
</g>
</svg>
